<?xml version="1.0" encoding="UTF-8" standalone="no"?>
<!-- Created with Inkscape (http://www.inkscape.org/) -->
<svg id="svg2" xmlns:rdf="http://www.w3.org/1999/02/22-rdf-syntax-ns#" xmlns="http://www.w3.org/2000/svg" xmlns:osb="http://www.openswatchbook.org/uri/2009/osb" height="50" width="67.785" version="1.1" xmlns:cc="http://creativecommons.org/ns#" viewBox="0 0 67.7847 50" xmlns:dc="http://purl.org/dc/elements/1.1/">
 <metadata id="metadata7">
  <rdf:RDF>
   <cc:Work rdf:about="">
    <dc:format>image/svg+xml</dc:format>
    <dc:type rdf:resource="http://purl.org/dc/dcmitype/StillImage"/>
    <dc:title/>
   </cc:Work>
  </rdf:RDF>
 </metadata>
 <g id="layer2" fill-rule="evenodd" transform="translate(-35.003 -28.914)">
  <path id="path4382" d="m99.923 51.407a32.079 21.731 0 0 1 -32.078 21.73 32.079 21.731 0 0 1 -32.079 -21.73 32.079 21.731 0 0 1 32.079 -21.731 32.079 21.731 0 0 1 32.078 21.731z" stroke="#211429" stroke-width="1.525" fill="#355d2f"/>
  <path id="path3338" d="m98.56 65.455a9.2226 9.3767 0 0 0 -9.2226 -9.3767 9.2226 9.3767 0 0 0 -9.2226 9.3767 9.2226 9.3767 0 0 0 9.2226 9.3767 9.2226 9.3767 0 0 0 9.2226 -9.3767z" stroke="#211429" stroke-width="1.0675" fill="#47863d"/>
  <path id="path4400" d="m58.064 30.133h19.44l-9.7199 20.364z" fill="#211429"/>
  <path id="path4185" d="m102.29 71.301a5.8739 5.9509 76.453 0 0 -7.1612 -4.3165 5.8739 5.9509 76.453 0 0 -4.4094 7.1044 5.8739 5.9509 76.453 0 0 7.1612 4.3165 5.8739 5.9509 76.453 0 0 4.4094 -7.1044z" stroke="#211429" stroke-width=".67870" fill="#58ae4a"/>
 </g>
</svg>
